# xmcd
#
# Track frame offsets:
#	150
#	15692
#	36360
#	55922
#	77767
#	100072
#	116557
#	138592
#	164040
#	167137
#	182432
#	206430
#
# Disc length: 3139 seconds
#
# Revision: 14
# Processed by: cddbd v1.5.2PL0 Copyright (c) Steve Scherf et al.
# Submitted via: EZCDAudioConverter 8.0.2.1
#
DISCID=a00c410c
DTITLE=张宇 - 奇迹 创世纪精选 CD2[五大再版-5MCD2031]
DYEAR=2000
DGENRE=
TTITLE0=爱情条约
TTITLE1=用心良苦
TTITLE2=月亮惹的祸
TTITLE3=圆谎
TTITLE4=一个人的天荒地老
TTITLE5=整个八月
TTITLE6=今夜寒风冷酸酸
TTITLE7=千金难买
TTITLE8=单恋
TTITLE9=单恋一枝花
TTITLE10=责任
TTITLE11=小妹
EXTD=
EXTT0=
EXTT1=
EXTT2=
EXTT3=
EXTT4=
EXTT5=
EXTT6=
EXTT7=
EXTT8=
EXTT9=
EXTT10=
EXTT11=
PLAYORDER=
